# xmcd CD database file
#
# Track frame offsets:
#	150
#	37411
#	64317
#
# Disc length: 3003 seconds
#
# Revision: 0
# Processed by: cddbd v1.5.2PL0 Copyright (c) Steve Scherf et al.
# Submitted via: CDex 1.51
#
DISCID=2b0bb903
DTITLE=Nissim - Eternal
DYEAR=2001
DGENRE=Jazz
TTITLE0=Love
TTITLE1=Daybreak
TTITLE2=Eternal
EXTD=YEAR: 2001
EXTT0=
EXTT1=
EXTT2=
PLAYORDER=
